<svg xmlns="http://www.w3.org/2000/svg" xmlns:xlink="http://www.w3.org/1999/xlink" width="297.5" height="297.5" viewBox="0 0 297.5 297.5"><defs><style>.a{fill:none;}.b{clip-path:url(#a);}.c{fill:#fff;}</style><clipPath id="a"><rect class="a" width="297.5" height="297.5"/></clipPath></defs><g class="b"><g transform="translate(0 0.1)"><path class="c" d="M294,13.4a26.076,26.076,0,0,1-5.6-4.3,26.075,26.075,0,0,1-4.3-5.6l4-2.4a20.938,20.938,0,0,0,3.6,4.7,20.937,20.937,0,0,0,4.7,3.6Z"/><path class="c" d="M294.5,27.3c-5.1-1.5-10.9-3.6-15.8-8.5s-7-10.7-8.5-15.8l4.5-1.4c1.4,4.7,3.2,9.7,7.3,13.9,4.1,4.1,9.1,5.9,13.9,7.3Z"/><path class="c" d="M294.4,40a73.74,73.74,0,0,0-7.1-2.3C281,35.9,274.5,34,269,28.5s-7.4-12-9.2-18.3a73.746,73.746,0,0,0-2.3-7.1l4.4-1.7a72.385,72.385,0,0,1,2.4,7.5c1.8,6,3.4,11.6,8,16.3,4.6,4.6,10.3,6.3,16.3,8q3.75,1.05,7.5,2.4Z"/><path class="c" d="M293.6,55.2c-4.6-4.5-10.1-6.1-16-7.8-6.3-1.8-12.8-3.7-18.3-9.2s-7.4-12-9.2-18.3c-1.7-5.9-3.4-11.4-7.8-16L245.7.6c5.3,5.4,7.1,11.8,8.9,18,1.8,6,3.4,11.6,8,16.3,4.6,4.6,10.3,6.3,16.3,8,6.2,1.8,12.6,3.7,18,9Z"/><path class="c" d="M293,84.2c-.3-.9-.6-1.9-.8-2.8-1.8-6-3.4-11.6-8-16.3-4.6-4.6-10.3-6.3-16.3-8-6.3-1.8-12.8-3.7-18.3-9.2s-7.4-12-9.2-18.3c-1.8-6-3.4-11.6-8-16.3-4.6-4.6-10.3-6.3-16.3-8-.9-.3-1.9-.5-2.8-.8L214.7,0c.9.3,1.8.5,2.7.8,6.3,1.8,12.8,3.7,18.3,9.2s7.4,12,9.2,18.3c1.8,6,3.4,11.6,8,16.3,4.6,4.6,10.3,6.3,16.3,8,6.3,1.8,12.8,3.7,18.3,9.2s7.4,12,9.2,18.3c.3.9.5,1.8.8,2.7Z"/><path class="c" d="M293.7,111.3c-.7-.6-1.4-1.2-2.1-1.9-5.5-5.5-7.4-12-9.2-18.3-1.8-6-3.4-11.6-8-16.3-4.6-4.6-10.3-6.3-16.3-8-6.3-1.8-12.8-3.7-18.3-9.2s-7.4-12-9.2-18.3c-1.8-6-3.4-11.6-8-16.3-4.6-4.6-10.3-6.3-16.3-8-6.3-1.8-12.8-3.7-18.3-9.2-.7-.7-1.3-1.4-1.9-2.1l3.6-3a12.878,12.878,0,0,0,1.6,1.7c4.6,4.6,10.3,6.3,16.3,8,6.3,1.8,12.8,3.7,18.3,9.2s7.4,12,9.2,18.3c1.8,6,3.4,11.6,8,16.3,4.6,4.6,10.3,6.3,16.3,8,6.3,1.8,12.8,3.7,18.3,9.2s7.4,12,9.2,18.3c1.8,6,3.4,11.6,8,16.3.5.5,1.1,1.1,1.7,1.6Z"/><path class="c" d="M294.4,126.5a33.5,33.5,0,0,1-12.5-7.4c-5.5-5.5-7.4-12-9.2-18.3-1.8-6-3.4-11.6-8-16.3-4.6-4.6-10.3-6.3-16.3-8-6.3-1.8-12.8-3.7-18.3-9.2s-7.4-12-9.2-18.3c-1.8-6-3.4-11.6-8-16.3-4.6-4.6-10.3-6.3-16.3-8-6.3-1.8-12.8-3.7-18.3-9.2A31,31,0,0,1,170.9,3l4.4-1.6a26.976,26.976,0,0,0,6.3,10.7c4.6,4.6,10.3,6.3,16.3,8,6.3,1.8,12.8,3.7,18.3,9.2s7.4,12,9.2,18.3c1.8,6,3.4,11.6,8,16.3,4.6,4.6,10.3,6.3,16.3,8,6.3,1.8,12.8,3.7,18.3,9.2s7.4,12,9.2,18.3c1.8,6,3.4,11.6,8,16.3a27.664,27.664,0,0,0,10.7,6.3Z"/><path class="c" d="M294.5,139.2c-1.3-.4-2.7-.8-4-1.2-6.3-1.8-12.8-3.7-18.3-9.2s-7.4-12-9.2-18.3c-1.8-6-3.4-11.6-8-16.3-4.6-4.6-10.3-6.3-16.3-8-6.3-1.8-12.8-3.7-18.3-9.2s-7.4-12-9.2-18.3c-1.8-6-3.4-11.6-8-16.3-4.6-4.6-10.3-6.3-16.3-8-6.3-1.8-12.8-3.7-18.3-9.2s-7.4-12-9.2-18.3c-.4-1.3-.8-2.7-1.2-4l4.5-1.4c.4,1.4.8,2.7,1.2,4.1,1.8,6,3.4,11.6,8,16.3,4.6,4.6,10.3,6.3,16.3,8,6.3,1.8,12.8,3.7,18.3,9.2s7.4,12,9.2,18.3c1.8,6,3.4,11.6,8,16.3,4.6,4.6,10.3,6.3,16.3,8,6.3,1.8,12.8,3.7,18.3,9.2s7.4,12,9.2,18.3c1.8,6,3.4,11.6,8,16.3,4.6,4.6,10.3,6.3,16.3,8,1.4.4,2.8.8,4.1,1.2Z"/><path class="c" d="M293.9,153.1c-3.9-2.7-8.4-4-13.1-5.4-6.3-1.8-12.8-3.7-18.3-9.2s-7.4-12-9.2-18.3c-1.8-6-3.4-11.6-8-16.3-4.6-4.6-10.3-6.3-16.3-8-6.3-1.8-12.8-3.7-18.3-9.2s-7.4-12-9.2-18.3c-1.8-6-3.4-11.6-8-16.3-4.6-4.6-10.3-6.3-16.3-8-6.3-1.8-12.8-3.7-18.3-9.2s-7.4-12-9.2-18.3c-1.4-4.7-2.7-9.1-5.4-13.1L148.2.8c3.2,4.6,4.6,9.6,6,14.4,1.8,6,3.4,11.6,8,16.3s10.3,6.3,16.3,8c6.3,1.8,12.8,3.7,18.3,9.2s7.4,12,9.2,18.3c1.8,6,3.4,11.6,8,16.3,4.6,4.6,10.3,6.3,16.3,8,6.3,1.8,12.8,3.7,18.3,9.2s7.4,12,9.2,18.3c1.8,6,3.4,11.6,8,16.3,4.6,4.6,10.3,6.3,16.3,8,4.9,1.4,9.9,2.9,14.4,6Z"/><path class="c" d="M293,174.5a25.743,25.743,0,0,0-5.7-9.1c-4.6-4.6-10.3-6.3-16.3-8-6.3-1.8-12.8-3.7-18.3-9.2s-7.4-12-9.2-18.3c-1.8-6-3.4-11.6-8-16.3-4.6-4.6-10.3-6.3-16.3-8-6.3-1.8-12.8-3.7-18.3-9.2s-7.4-12-9.2-18.3c-1.8-6-3.4-11.6-8-16.3-4.6-4.6-10.3-6.3-16.3-8-6.3-1.8-12.8-3.7-18.3-9.2s-7.4-12-9.2-18.3c-1.8-6-3.4-11.6-8-16.3a25.743,25.743,0,0,0-9.1-5.7l1.7-4.4a31.012,31.012,0,0,1,10.7,6.7c5.5,5.5,7.4,12,9.2,18.3,1.8,6,3.4,11.6,8,16.3,4.6,4.6,10.3,6.3,16.3,8,6.3,1.8,12.8,3.7,18.3,9.2s7.4,12,9.2,18.3c1.8,6,3.4,11.6,8,16.3,4.6,4.6,10.3,6.3,16.3,8,6.3,1.8,12.8,3.7,18.3,9.2s7.4,12,9.2,18.3c1.8,6,3.4,11.6,8,16.3,4.6,4.6,10.3,6.3,16.3,8,6.3,1.8,12.8,3.7,18.3,9.2a29.6,29.6,0,0,1,6.7,10.7Z"/><path class="c" d="M293.4,208.1c-4.4-5.1-6.1-11-7.8-16.7-1.8-6-3.4-11.6-8-16.3-4.6-4.6-10.3-6.3-16.3-8-6.3-1.8-12.8-3.7-18.3-9.2s-7.4-12-9.2-18.3c-1.8-6-3.4-11.6-8-16.3-4.6-4.6-10.3-6.3-16.3-8-6.3-1.8-12.8-3.7-18.3-9.2s-7.4-12-9.2-18.3c-1.8-6-3.4-11.6-8-16.3-4.6-4.6-10.3-6.3-16.3-8-6.3-1.8-12.8-3.7-18.3-9.2s-7.4-12-9.2-18.3c-1.8-6-3.4-11.6-8-16.3-4.6-4.6-10.3-6.3-16.3-8C100.2,10,94.4,8.3,89.2,3.9l3-3.6c4.4,3.7,9.5,5.2,15,6.8,6.3,1.8,12.8,3.7,18.3,9.2s7.4,12,9.2,18.3c1.8,6,3.4,11.6,8,16.3,4.6,4.6,10.3,6.3,16.3,8,6.3,1.8,12.8,3.7,18.3,9.2s7.4,12,9.2,18.3c1.8,6,3.4,11.6,8,16.3,4.6,4.6,10.3,6.3,16.3,8,6.3,1.8,12.8,3.7,18.3,9.2s7.4,12,9.2,18.3c1.8,6,3.4,11.6,8,16.3s10.3,6.3,16.3,8c6.3,1.8,12.8,3.7,18.3,9.2s7.4,12,9.2,18.3c1.6,5.4,3.1,10.6,6.8,15Z"/><path class="c" d="M294.3,225.5a29.647,29.647,0,0,1-9.1-6.1c-5.5-5.5-7.4-12-9.2-18.3-1.8-6-3.4-11.6-8-16.3-4.6-4.6-10.3-6.3-16.3-8-6.3-1.8-12.8-3.7-18.3-9.2s-7.4-12-9.2-18.3c-1.8-6-3.4-11.6-8-16.3-4.6-4.6-10.3-6.3-16.3-8-6.3-1.8-12.8-3.7-18.3-9.2s-7.4-12-9.2-18.3c-1.8-6-3.4-11.6-8-16.3-4.6-4.6-10.3-6.3-16.3-8-6.3-1.8-12.8-3.7-18.3-9.2s-7.4-12-9.2-18.3c-1.8-6-3.4-11.6-8-16.3-4.6-4.6-10.3-6.3-16.3-8C90,19.7,83.5,17.8,78,12.3a29.647,29.647,0,0,1-6.1-9.1l4.3-1.9A26.493,26.493,0,0,0,81.3,9c4.6,4.6,10.3,6.3,16.3,8,6.3,1.8,12.8,3.7,18.3,9.2s7.4,12,9.2,18.3c1.8,6,3.4,11.6,8,16.3,4.6,4.6,10.3,6.3,16.3,8,6.3,1.8,12.8,3.7,18.3,9.2s7.4,12,9.2,18.3c1.8,6,3.4,11.6,8,16.3,4.6,4.6,10.3,6.3,16.3,8,6.3,1.8,12.8,3.7,18.3,9.2s7.4,12,9.2,18.3c1.8,6,3.4,11.6,8,16.3,4.6,4.6,10.3,6.3,16.3,8,6.3,1.8,12.8,3.7,18.3,9.2s7.4,12,9.2,18.3c1.8,6,3.4,11.6,8,16.3a25.214,25.214,0,0,0,7.7,5.1Z"/><path class="c" d="M294.5,238.6l-.8-.2c-6.3-1.8-12.8-3.7-18.3-9.2s-7.4-12-9.2-18.3c-1.8-6-3.4-11.6-8-16.3-4.6-4.6-10.3-6.3-16.3-8-6.3-1.8-12.8-3.7-18.3-9.2s-7.4-12-9.2-18.3c-1.8-6-3.4-11.6-8-16.3s-10.3-6.3-16.3-8c-6.3-1.8-12.8-3.7-18.3-9.2s-7.4-12-9.2-18.3c-1.8-6-3.4-11.6-8-16.3-4.6-4.6-10.3-6.3-16.3-8-6.3-1.8-12.8-3.7-18.3-9.2s-7.4-12-9.2-18.3c-1.8-6-3.4-11.6-8-16.3-4.6-4.6-10.3-6.3-16.3-8-6.3-1.8-12.8-3.7-18.3-9.2S60.8,10,59,3.7l-.2-.8,4.5-1.3.2.8c1.8,6,3.4,11.6,8,16.3,4.6,4.6,10.3,6.3,16.3,8,6.3,1.8,12.8,3.7,18.3,9.2s7.4,12,9.2,18.3c1.8,6,3.4,11.6,8,16.3,4.6,4.6,10.3,6.3,16.3,8,6.3,1.8,12.8,3.7,18.3,9.2s7.4,12,9.2,18.3c1.8,6,3.4,11.6,8,16.3,4.6,4.6,10.3,6.3,16.3,8,6.3,1.8,12.8,3.7,18.3,9.2s7.4,12,9.2,18.3c1.8,6,3.4,11.6,8,16.3s10.3,6.3,16.3,8c6.3,1.8,12.8,3.7,18.3,9.2s7.4,12,9.2,18.3c1.8,6,3.4,11.6,8,16.3,4.6,4.6,10.3,6.3,16.3,8l.8.2Z"/><path class="c" d="M294.1,251.7a57.675,57.675,0,0,0-10.1-3.6c-6.3-1.8-12.8-3.7-18.3-9.2s-7.4-12-9.2-18.3c-1.8-6-3.4-11.6-8-16.3-4.6-4.6-10.3-6.3-16.3-8-6.3-1.8-12.8-3.7-18.3-9.2s-7.4-12-9.2-18.3c-1.8-6-3.4-11.6-8-16.3-4.6-4.6-10.3-6.3-16.3-8-6.3-1.8-12.8-3.7-18.3-9.2s-7.4-12-9.2-18.3c-1.8-6-3.4-11.6-8-16.3-4.6-4.6-10.3-6.3-16.3-8-6.3-1.8-12.8-3.7-18.3-9.2s-7.4-12-9.2-18.3c-1.8-6-3.4-11.6-8-16.3-4.6-4.6-10.3-6.3-16.3-8-6.3-1.8-12.8-3.7-18.3-9.2s-7.4-12-9.2-18.3A52.4,52.4,0,0,0,45.7,3.3l4.2-2.1a68.488,68.488,0,0,1,4,10.9c1.8,6,3.4,11.6,8,16.3,4.6,4.6,10.3,6.3,16.3,8,6.3,1.8,12.8,3.7,18.3,9.2s7.4,12,9.2,18.3c1.8,6,3.4,11.6,8,16.3,4.6,4.6,10.3,6.3,16.3,8,6.3,1.8,12.8,3.7,18.3,9.2s7.4,12,9.2,18.3c1.8,6,3.4,11.6,8,16.3,4.6,4.6,10.3,6.3,16.3,8,6.3,1.8,12.8,3.7,18.3,9.2s7.4,12,9.2,18.3c1.8,6,3.4,11.6,8,16.3,4.6,4.6,10.3,6.3,16.3,8,6.3,1.8,12.8,3.7,18.3,9.2s7.4,12,9.2,18.3c1.8,6,3.4,11.6,8,16.3,4.6,4.6,10.3,6.3,16.3,8a65.1,65.1,0,0,1,10.9,4Z"/><path class="c" d="M293.3,269.1a21.583,21.583,0,0,0-2.7-3.3c-4.6-4.6-10.3-6.3-16.3-8-6.3-1.8-12.8-3.7-18.3-9.2s-7.4-12-9.2-18.3c-1.8-6-3.4-11.6-8-16.3-4.6-4.6-10.3-6.3-16.3-8-6.3-1.8-12.8-3.7-18.3-9.2s-7.4-12-9.2-18.3c-1.8-6-3.4-11.6-8-16.3-4.6-4.6-10.3-6.3-16.3-8-6.3-1.8-12.8-3.7-18.3-9.2s-7.4-12-9.2-18.3c-1.8-6-3.4-11.6-8-16.3-4.6-4.6-10.3-6.3-16.3-8-6.3-1.8-12.8-3.7-18.3-9.2s-7.4-12-9.2-18.3c-1.8-6-3.4-11.6-8-16.3-4.6-4.6-10.3-6.3-16.3-8-6.3-1.8-12.8-3.7-18.3-9.2s-7.4-12-9.2-18.3c-1.8-6-3.4-11.6-8-16.3a21.584,21.584,0,0,0-3.3-2.7L31,.3a30.918,30.918,0,0,1,3.9,3.3c5.5,5.5,7.4,12,9.2,18.3,1.8,6,3.4,11.6,8,16.3,4.6,4.6,10.3,6.3,16.3,8,6.3,1.8,12.8,3.7,18.3,9.2s7.4,12,9.2,18.3c1.8,6,3.4,11.6,8,16.3,4.6,4.6,10.3,6.3,16.3,8,6.3,1.8,12.8,3.7,18.3,9.2s7.4,12,9.2,18.3c1.8,6,3.4,11.6,8,16.3,4.6,4.6,10.3,6.3,16.3,8,6.3,1.8,12.8,3.7,18.3,9.2s7.4,12,9.2,18.3c1.8,6,3.4,11.6,8,16.3,4.6,4.6,10.3,6.3,16.3,8,6.3,1.8,12.8,3.7,18.3,9.2s7.4,12,9.2,18.3c1.8,6,3.4,11.6,8,16.3,4.6,4.6,10.3,6.3,16.3,8,6.3,1.8,12.8,3.7,18.3,9.2a30.918,30.918,0,0,1,3.3,3.9Z"/><path class="c" d="M290.1,295.9c-.4-1.4-.8-2.7-1.2-4.1-1.8-6-3.4-11.6-8-16.3-4.6-4.6-10.3-6.3-16.3-8-6.3-1.8-12.8-3.7-18.3-9.2s-7.4-12-9.2-18.3c-1.8-6-3.4-11.6-8-16.3-4.6-4.6-10.3-6.3-16.3-8-6.3-1.8-12.8-3.7-18.3-9.2s-7.4-12-9.2-18.3c-1.8-6-3.4-11.6-8-16.3-4.6-4.6-10.3-6.3-16.3-8-6.3-1.8-12.8-3.7-18.3-9.2s-7.4-12-9.2-18.3c-1.8-6-3.4-11.6-8-16.3-4.6-4.6-10.3-6.3-16.3-8-6.3-1.8-12.8-3.7-18.3-9.2s-7.4-12-9.2-18.3c-1.8-6-3.4-11.6-8-16.3-4.6-4.6-10.3-6.3-16.3-8-6.3-1.8-12.8-3.7-18.3-9.2s-7.4-12-9.2-18.3c-1.8-6-3.4-11.6-8-16.3-4.6-4.6-10.3-6.3-16.3-8-1.3-.3-2.7-.8-4.1-1.2L3,2.8c1.3.4,2.7.8,4,1.2,6.3,1.8,12.8,3.7,18.3,9.2s7.4,12,9.2,18.3c1.8,6,3.4,11.6,8,16.3,4.6,4.6,10.3,6.3,16.3,8,6.3,1.8,12.8,3.7,18.3,9.2s7.4,12,9.2,18.3c1.8,6,3.4,11.6,8,16.3,4.6,4.6,10.3,6.3,16.3,8,6.3,1.8,12.8,3.7,18.3,9.2s7.4,12,9.2,18.3c1.8,6,3.4,11.6,8,16.3,4.6,4.6,10.3,6.3,16.3,8,6.3,1.8,12.8,3.7,18.3,9.2s7.4,12,9.2,18.3c1.8,6,3.4,11.6,8,16.3,4.6,4.6,10.3,6.3,16.3,8,6.3,1.8,12.8,3.7,18.3,9.2s7.4,12,9.2,18.3c1.8,6,3.4,11.6,8,16.3,4.6,4.6,10.3,6.3,16.3,8,6.3,1.8,12.8,3.7,18.3,9.2s7.4,12,9.2,18.3c.4,1.3.8,2.7,1.2,4Z"/><path class="c" d="M277.5,296a26.976,26.976,0,0,0-6.3-10.7c-4.6-4.6-10.3-6.3-16.3-8-6.3-1.8-12.8-3.7-18.3-9.2s-7.4-12-9.2-18.3c-1.8-6-3.4-11.6-8-16.3-4.6-4.6-10.3-6.3-16.3-8-6.3-1.8-12.8-3.7-18.3-9.2s-7.4-12-9.2-18.3c-1.8-6-3.4-11.6-8-16.3-4.6-4.6-10.3-6.3-16.3-8-6.3-1.8-12.8-3.7-18.3-9.2s-7.4-12-9.2-18.3c-1.8-6-3.4-11.6-8-16.3-4.6-4.6-10.3-6.3-16.3-8-6.3-1.8-12.8-3.7-18.3-9.2s-7.4-12-9.2-18.3c-1.8-6-3.4-11.6-8-16.3-4.6-4.6-10.3-6.3-16.3-8-6.3-1.8-12.8-3.7-18.3-9.2s-7.4-12-9.2-18.3c-1.8-6-3.4-11.6-8-16.3A27.665,27.665,0,0,0,1.5,20L3,15.6A33.5,33.5,0,0,1,15.5,23c5.5,5.5,7.4,12,9.2,18.3,1.8,6,3.4,11.6,8,16.3,4.6,4.6,10.3,6.3,16.3,8,6.3,1.8,12.8,3.7,18.3,9.2s7.4,12,9.2,18.3c1.8,6,3.4,11.6,8,16.3,4.6,4.6,10.3,6.3,16.3,8,6.3,1.8,12.8,3.7,18.3,9.2s7.4,12,9.2,18.3c1.8,6,3.4,11.6,8,16.3,4.6,4.6,10.3,6.3,16.3,8,6.3,1.8,12.8,3.7,18.3,9.2s7.4,12,9.2,18.3c1.8,6,3.4,11.6,8,16.3,4.6,4.6,10.3,6.3,16.3,8,6.3,1.8,12.8,3.7,18.3,9.2s7.4,12,9.2,18.3c1.8,6,3.4,11.6,8,16.3,4.6,4.6,10.3,6.3,16.3,8,6.3,1.8,12.8,3.7,18.3,9.2a31,31,0,0,1,7.4,12.5Z"/><path class="c" d="M263,296.7a12.878,12.878,0,0,0-1.6-1.7c-4.6-4.6-10.3-6.3-16.3-8-6.3-1.8-12.8-3.7-18.3-9.2s-7.4-12-9.2-18.3c-1.8-6-3.4-11.6-8-16.3-4.6-4.6-10.3-6.3-16.3-8-6.3-1.8-12.8-3.7-18.3-9.2s-7.4-12-9.2-18.3c-1.8-6-3.4-11.6-8-16.3-4.6-4.6-10.3-6.3-16.3-8-6.3-1.8-12.8-3.7-18.3-9.2s-7.4-12-9.2-18.3c-1.8-6-3.4-11.6-8-16.3-4.6-4.6-10.3-6.3-16.3-8-6.3-1.8-12.8-3.7-18.3-9.2s-7.4-12-9.2-18.3c-1.8-6-3.4-11.6-8-16.3-4.6-4.6-10.3-6.3-16.3-8-6.3-1.8-12.8-3.7-18.3-9.2s-7.4-12-9.2-18.3C8.6,46.3,7,40.7,2.4,36c-.5-.5-1.1-1.1-1.7-1.6l3-3.6c.7.6,1.4,1.2,2.1,1.9,5.5,5.5,7.4,12,9.2,18.3,1.8,6,3.4,11.6,8,16.3,4.6,4.6,10.3,6.3,16.3,8,6.3,1.8,12.8,3.7,18.3,9.2s7.4,12,9.2,18.3c1.8,6,3.4,11.6,8,16.3,4.6,4.6,10.3,6.3,16.3,8,6.3,1.8,12.8,3.7,18.3,9.2s7.4,12,9.2,18.3c1.8,6,3.4,11.6,8,16.3,4.6,4.6,10.3,6.3,16.3,8,6.3,1.8,12.8,3.7,18.3,9.2s7.4,12,9.2,18.3c1.8,6,3.4,11.6,8,16.3,4.6,4.6,10.3,6.3,16.3,8,6.3,1.8,12.8,3.7,18.3,9.2s7.4,12,9.2,18.3c1.8,6,3.4,11.6,8,16.3,4.6,4.6,10.3,6.3,16.3,8,6.3,1.8,12.8,3.7,18.3,9.2.7.7,1.3,1.4,1.9,2.1Z"/><path class="c" d="M238.2,297.4c-.9-.3-1.8-.5-2.7-.8-6.3-1.8-12.8-3.7-18.3-9.2s-7.4-12-9.2-18.3c-1.8-6-3.4-11.6-8-16.3-4.6-4.6-10.3-6.3-16.3-8-6.3-1.8-12.8-3.7-18.3-9.2s-7.4-12-9.2-18.3c-1.8-6-3.4-11.6-8-16.3-4.6-4.6-10.3-6.3-16.3-8-6.3-1.8-12.8-3.7-18.3-9.2s-7.4-12-9.2-18.3c-1.8-6-3.4-11.6-8-16.3-4.6-4.6-10.3-6.3-16.3-8-6.3-1.8-12.8-3.7-18.3-9.2s-7.4-12-9.2-18.3c-1.8-6-3.4-11.6-8-16.3-4.6-4.6-10.3-6.3-16.3-8C22,87.6,15.5,85.7,10,80.3,4.5,74.8,2.6,68.3.8,62c-.3-.9-.5-1.8-.8-2.7l4.5-1.4c.3.9.6,1.9.8,2.8,1.8,6,3.4,11.6,8,16.3,4.6,4.6,10.3,6.3,16.3,8,6.3,1.8,12.8,3.7,18.3,9.2s7.4,12,9.2,18.3c1.8,6,3.4,11.6,8,16.3,4.6,4.6,10.3,6.3,16.3,8,6.3,1.8,12.8,3.7,18.3,9.2s7.4,12,9.2,18.3c1.8,6,3.4,11.6,8,16.3,4.6,4.6,10.3,6.3,16.3,8,6.3,1.8,12.8,3.7,18.3,9.2s7.4,12,9.2,18.3c1.8,6,3.4,11.6,8,16.3,4.6,4.6,10.3,6.3,16.3,8,6.3,1.8,12.8,3.7,18.3,9.2s7.4,12,9.2,18.3c1.8,6,3.4,11.6,8,16.3,4.6,4.6,10.3,6.3,16.3,8,.9.3,1.9.5,2.8.8Z"/><path class="c" d="M207.2,296.8c-5.3-5.4-7.1-11.8-8.9-18-1.8-6-3.4-11.6-8-16.3-4.6-4.6-10.3-6.3-16.3-8-6.3-1.8-12.8-3.7-18.3-9.2s-7.4-12-9.2-18.3c-1.8-6-3.4-11.6-8-16.3-4.6-4.6-10.3-6.3-16.3-8-6.3-1.8-12.8-3.7-18.3-9.2s-7.4-12-9.2-18.3c-1.8-6-3.4-11.6-8-16.3-4.6-4.6-10.3-6.3-16.3-8-6.3-1.8-12.8-3.7-18.3-9.2s-7.4-12-9.2-18.3c-1.8-6-3.4-11.6-8-16.3-4.6-4.6-10.3-6.3-16.3-8C12.4,97.3,6,95.4.6,90.2l3.3-3.4c4.6,4.5,10.1,6.1,16,7.8,6.3,1.8,12.8,3.7,18.3,9.2s7.4,12,9.2,18.3c1.8,6,3.4,11.6,8,16.3,4.6,4.6,10.3,6.3,16.3,8,6.3,1.8,12.8,3.7,18.3,9.2s7.4,12,9.2,18.3c1.8,6,3.4,11.6,8,16.3,4.6,4.6,10.3,6.3,16.3,8,6.3,1.8,12.8,3.7,18.3,9.2s7.4,12,9.2,18.3c1.8,6,3.4,11.6,8,16.3,4.6,4.6,10.3,6.3,16.3,8,6.3,1.8,12.8,3.7,18.3,9.2s7.4,12,9.2,18.3c1.7,5.9,3.4,11.4,7.8,16Z"/><path class="c" d="M191,296.1a72.389,72.389,0,0,1-2.4-7.5c-1.8-6-3.4-11.6-8-16.3-4.6-4.6-10.3-6.3-16.3-8-6.3-1.8-12.8-3.7-18.3-9.2s-7.4-12-9.2-18.3c-1.8-6-3.4-11.6-8-16.3-4.6-4.6-10.3-6.3-16.3-8-6.3-1.8-12.8-3.7-18.3-9.2s-7.4-12-9.2-18.3c-1.8-6-3.4-11.6-8-16.3-4.6-4.6-10.3-6.3-16.3-8-6.3-1.8-12.8-3.7-18.3-9.2s-7.4-12-9.2-18.3c-1.8-6-3.4-11.6-8-16.3-4.6-4.6-10.3-6.3-16.3-8q-3.75-1.05-7.5-2.4l1.7-4.4a73.742,73.742,0,0,0,7.1,2.3c6.3,1.8,12.8,3.7,18.3,9.2s7.4,12,9.2,18.3c1.8,6,3.4,11.6,8,16.3,4.6,4.6,10.3,6.3,16.3,8,6.3,1.8,12.8,3.7,18.3,9.2s7.4,12,9.2,18.3c1.8,6,3.4,11.6,8,16.3s10.3,6.3,16.3,8c6.3,1.8,12.8,3.7,18.3,9.2s7.4,12,9.2,18.3c1.8,6,3.4,11.6,8,16.3,4.6,4.6,10.3,6.3,16.3,8,6.3,1.8,12.8,3.7,18.3,9.2s7.4,12,9.2,18.3a73.739,73.739,0,0,0,2.3,7.1Z"/><path class="c" d="M178.1,295.9c-1.4-4.8-3.2-9.7-7.3-13.9-4.6-4.6-10.3-6.3-16.3-8-6.3-1.8-12.8-3.7-18.3-9.2s-7.4-12-9.2-18.3c-1.8-6-3.4-11.6-8-16.3-4.6-4.6-10.3-6.3-16.3-8-6.3-1.8-12.8-3.7-18.3-9.2s-7.4-12-9.2-18.3c-1.8-6-3.4-11.6-8-16.3-4.6-4.6-10.3-6.3-16.3-8-6.3-1.8-12.8-3.7-18.3-9.2s-7.4-12-9.2-18.3c-1.8-6-3.4-11.6-8-16.3-4.1-4.1-9.1-5.9-13.9-7.3l1.4-4.5c5.1,1.5,10.9,3.6,15.8,8.5,5.5,5.5,7.4,12,9.2,18.3,1.8,6,3.4,11.6,8,16.3,4.6,4.6,10.3,6.3,16.3,8,6.3,1.8,12.8,3.7,18.3,9.2s7.4,12,9.2,18.3c1.8,6,3.4,11.6,8,16.3,4.6,4.6,10.3,6.3,16.3,8,6.3,1.8,12.8,3.7,18.3,9.2s7.4,12,9.2,18.3c1.8,6,3.4,11.6,8,16.3,4.6,4.6,10.3,6.3,16.3,8,6.3,1.8,12.8,3.7,18.3,9.2,4.9,4.9,7,10.7,8.5,15.8Z"/><path class="c" d="M164.7,296.4a20.938,20.938,0,0,0-3.6-4.7c-4.6-4.6-10.3-6.3-16.3-8-6.3-1.8-12.8-3.7-18.3-9.2s-7.4-12-9.2-18.3c-1.8-6-3.4-11.6-8-16.3-4.6-4.6-10.3-6.3-16.3-8-6.3-1.8-12.8-3.7-18.3-9.2s-7.4-12-9.2-18.3c-1.8-6-3.4-11.6-8-16.3-4.6-4.6-10.3-6.3-16.3-8-6.3-1.8-12.8-3.7-18.3-9.2s-7.4-12-9.2-18.3c-1.8-6-3.4-11.6-8-16.3A20.938,20.938,0,0,0,1,132.7l2.4-4A26.076,26.076,0,0,1,9,133c5.5,5.5,7.4,12,9.2,18.3,1.8,6,3.4,11.6,8,16.3,4.6,4.6,10.3,6.3,16.3,8,6.3,1.8,12.8,3.7,18.3,9.2s7.4,12,9.2,18.3c1.8,6,3.4,11.6,8,16.3,4.6,4.6,10.3,6.3,16.3,8,6.3,1.8,12.8,3.7,18.3,9.2s7.4,12,9.2,18.3c1.8,6,3.4,11.6,8,16.3,4.6,4.6,10.3,6.3,16.3,8,6.3,1.8,12.8,3.7,18.3,9.2a26.076,26.076,0,0,1,4.3,5.6Z"/><path class="c" d="M145.7,297.3a57.917,57.917,0,0,0-10.6-3.9c-6.3-1.8-12.8-3.7-18.3-9.2s-7.4-12-9.2-18.3c-1.8-6-3.4-11.6-8-16.3-4.6-4.6-10.3-6.3-16.3-8-6.3-1.8-12.8-3.7-18.3-9.2s-7.4-12-9.2-18.3c-1.8-6-3.4-11.6-8-16.3s-10.3-6.3-16.3-8c-6.3-1.8-12.8-3.7-18.3-9.2s-7.4-12-9.2-18.3A53.629,53.629,0,0,0,.1,151.7l4.1-2.2A56.952,56.952,0,0,1,8.4,161c1.8,6,3.4,11.6,8,16.3,4.6,4.6,10.3,6.3,16.3,8,6.3,1.8,12.8,3.7,18.3,9.2s7.4,12,9.2,18.3c1.8,6,3.4,11.6,8,16.3,4.6,4.6,10.3,6.3,16.3,8,6.3,1.8,12.8,3.7,18.3,9.2s7.4,12,9.2,18.3c1.8,6,3.4,11.6,8,16.3,4.6,4.6,10.3,6.3,16.3,8a66.61,66.61,0,0,1,11.5,4.2Z"/><path class="c" d="M111.1,297.1a30.92,30.92,0,0,1-3.9-3.3c-5.5-5.5-7.4-12-9.2-18.3-1.8-6-3.4-11.6-8-16.3-4.6-4.6-10.3-6.3-16.3-8-6.3-1.8-12.8-3.7-18.3-9.2s-7.4-12-9.2-18.3c-1.8-6-3.4-11.6-8-16.3-4.6-4.6-10.3-6.3-16.3-8-6.3-1.8-12.8-3.7-18.3-9.2a30.918,30.918,0,0,1-3.3-3.9l3.9-2.6A21.585,21.585,0,0,0,6.9,187c4.6,4.6,10.3,6.3,16.3,8,6.3,1.8,12.8,3.7,18.3,9.2s7.4,12,9.2,18.3c1.8,6,3.4,11.6,8,16.3,4.6,4.6,10.3,6.3,16.3,8,6.3,1.8,12.8,3.7,18.3,9.2s7.4,12,9.2,18.3c1.8,6,3.4,11.6,8,16.3a21.585,21.585,0,0,0,3.3,2.7Z"/><path class="c" d="M92.2,296.3a68.487,68.487,0,0,1-4-10.9c-1.8-6-3.4-11.6-8-16.3-4.6-4.6-10.3-6.3-16.3-8-6.3-1.8-12.8-3.7-18.3-9.2s-7.4-12-9.2-18.3c-1.8-6-3.4-11.6-8-16.3-4.6-4.6-10.3-6.3-16.3-8a65.1,65.1,0,0,1-10.9-4l2.1-4.2a57.674,57.674,0,0,0,10.1,3.6c6.3,1.8,12.8,3.7,18.3,9.2s7.4,12,9.2,18.3c1.8,6,3.4,11.6,8,16.3,4.6,4.6,10.3,6.3,16.3,8,6.3,1.8,12.8,3.7,18.3,9.2s7.4,12,9.2,18.3a52.4,52.4,0,0,0,3.6,10.1Z"/><path class="c" d="M78.7,295.9l-.2-.8c-1.8-6-3.4-11.6-8-16.3-4.6-4.6-10.3-6.3-16.3-8-6.3-1.8-12.8-3.7-18.3-9.2s-7.4-12-9.2-18.3c-1.8-6-3.4-11.6-8-16.3-4.6-4.6-10.3-6.3-16.3-8l-.8-.2,1.3-4.5.8.2c6.3,1.8,12.8,3.7,18.3,9.2s7.4,12,9.2,18.3c1.8,6,3.4,11.6,8,16.3,4.6,4.6,10.3,6.3,16.3,8,6.3,1.8,12.8,3.7,18.3,9.2s7.4,12,9.2,18.3l.2.8Z"/><path class="c" d="M65.9,296.2a26.493,26.493,0,0,0-5.1-7.7c-4.6-4.6-10.3-6.3-16.3-8-6.3-1.8-12.8-3.7-18.3-9.2s-7.4-12-9.2-18.3c-1.8-6-3.4-11.6-8-16.3a25.214,25.214,0,0,0-7.7-5.1l1.9-4.3a29.647,29.647,0,0,1,9.1,6.1c5.5,5.5,7.4,12,9.2,18.3,1.8,6,3.4,11.6,8,16.3,4.6,4.6,10.3,6.3,16.3,8,6.3,1.8,12.8,3.7,18.3,9.2a29.647,29.647,0,0,1,6.1,9.1Z"/><path class="c" d="M49.7,297c-4.4-3.7-9.5-5.2-15-6.8-6.3-1.8-12.8-3.7-18.3-9.2S9,269,7.2,262.7c-1.6-5.4-3.1-10.6-6.8-15l3.6-3c4.4,5.1,6.1,11,7.8,16.7,1.8,6,3.4,11.6,8,16.3,4.6,4.6,10.3,6.3,16.3,8,5.7,1.7,11.5,3.4,16.7,7.8Z"/><path class="c" d="M17.5,297.4a31.012,31.012,0,0,1-10.7-6.7A29.6,29.6,0,0,1,.1,280l4.4-1.7a25.743,25.743,0,0,0,5.7,9.1,25.743,25.743,0,0,0,9.1,5.7Z"/></g></g></svg>